<svg width="209" height="209" viewBox="0 0 209 209" fill="none" xmlns="http://www.w3.org/2000/svg">
<path d="M105.058 106.767C82.5484 84.8712 33.3806 42.7749 54.5899 20.9463C75.7993 -0.882292 100.223 66.6807 105.058 106.767ZM105.058 106.767C106.725 57.5855 105.411 -25.2373 124.619 8.31398C143.828 41.8653 122.732 85.5449 105.058 106.767ZM105.058 106.767C119.564 87.2292 145.428 54.8007 170.639 52.7796C195.85 50.7584 140.573 85.5449 105.058 106.767ZM105.058 106.767C114.729 102.556 133.823 101.288 170.639 101.288C207.455 101.288 210.323 109.709 207.155 113.92L105.058 106.767ZM105.058 106.767C140.573 111.483 200.452 131.706 193.649 146.258C186.846 160.811 134.904 123.61 105.058 106.767ZM105.058 106.767C133.737 134.895 175.041 196.585 148.63 189.713C122.218 182.841 111.727 129.168 105.058 106.767ZM105.058 106.767C81.214 139.779 24.0749 207.5 24.0749 185.671C24.0749 163.843 81.214 121.589 105.058 106.767ZM105.058 106.767C76.8787 112.157 11.8695 127.765 15.0709 118.467C18.2723 109.17 79.5466 104.409 105.058 106.767ZM105.058 106.767C90.3843 133.716 55.988 194.968 73.5969 195.777C91.2058 196.585 105.058 134.39 105.058 106.767ZM105.058 106.767C100.222 139.443 84.8018 211.037 99.6083 207.399C114.415 203.761 112.561 136.411 105.058 106.767ZM105.058 106.767C69.5423 107.778 -8.33892 112.909 2.06544 96.7399C12.4698 80.5706 78.2126 94.3033 105.058 106.767ZM105.058 106.767C95.888 84.029 71.7985 45.7055 86.6051 45.7055C101.412 45.7055 108.227 84.029 105.058 106.767ZM105.058 106.767C114.896 91.9453 127.123 72.1827 135.126 83.097C143.13 94.0113 121.566 101.041 105.058 106.767ZM105.058 106.767C75.2686 112.494 10.807 132.616 29.0798 138.679C47.3525 144.743 90.4959 117.547 105.058 106.767Z" stroke="black"/>
</svg>
